<svg width="48" height="48" viewBox="0 0 48 48" fill="none" xmlns="http://www.w3.org/2000/svg">
<path d="M8 40C6.9 40 5.95867 39.6087 5.176 38.826C4.39333 38.0433 4.00133 37.1013 4 36V12C4 10.9 4.392 9.95867 5.176 9.176C5.96 8.39333 6.90133 8.00133 8 8H40C41.1 8 42.042 8.392 42.826 9.176C43.61 9.96 44.0013 10.9013 44 12V36C44 37.1 43.6087 38.042 42.826 38.826C42.0433 39.61 41.1013 40.0013 40 40H8ZM40 16L25.05 25.35C24.8833 25.45 24.7087 25.5253 24.526 25.576C24.3433 25.6267 24.168 25.6513 24 25.65C23.832 25.6487 23.6573 25.624 23.476 25.576C23.2947 25.528 23.1193 25.4527 22.95 25.35L8 16V36H40V16ZM24 22L40 12H8L24 22ZM8 16.5V13.55V13.6V13.576V16.5Z" fill="#E3AD30"/>
</svg>
