<svg width="48" height="48" viewBox="0 0 48 48" fill="none" xmlns="http://www.w3.org/2000/svg">
<path d="M8 42C6.9 42 5.95867 41.6087 5.176 40.826C4.39333 40.0433 4.00133 39.1013 4 38V16C4 14.9 4.392 13.9587 5.176 13.176C5.96 12.3933 6.90133 12.0013 8 12H16V8C16 6.9 16.392 5.95867 17.176 5.176C17.96 4.39333 18.9013 4.00133 20 4H28C29.1 4 30.042 4.392 30.826 5.176C31.61 5.96 32.0013 6.90133 32 8V12H40C41.1 12 42.042 12.392 42.826 13.176C43.61 13.96 44.0013 14.9013 44 16V38C44 39.1 43.6087 40.042 42.826 40.826C42.0433 41.61 41.1013 42.0013 40 42H8ZM8 38H40V16H8V38ZM20 12H28V8H20V12Z" fill="#E3AD30"/>
</svg>
