<svg width="48" height="48" viewBox="0 0 48 48" fill="none" xmlns="http://www.w3.org/2000/svg">
<path d="M12 38V36C12 33.8783 12.8429 31.8434 14.3431 30.3431C15.8434 28.8429 17.8783 28 20 28H28C30.1217 28 32.1566 28.8429 33.6569 30.3431C35.1571 31.8434 36 33.8783 36 36V38M30 16C30 17.5913 29.3679 19.1174 28.2426 20.2426C27.1174 21.3679 25.5913 22 24 22C22.4087 22 20.8826 21.3679 19.7574 20.2426C18.6321 19.1174 18 17.5913 18 16C18 14.4087 18.6321 12.8826 19.7574 11.7574C20.8826 10.6321 22.4087 10 24 10C25.5913 10 27.1174 10.6321 28.2426 11.7574C29.3679 12.8826 30 14.4087 30 16Z" stroke="#E3AD30" stroke-width="4" stroke-linecap="round"/>
</svg>
