<svg width="36" height="36" viewBox="0 0 36 36" fill="none" xmlns="http://www.w3.org/2000/svg">
<path d="M33.8889 15.1875C31.149 20.25 28.8124 20.3074 29.3012 21.5803C29.5791 22.3043 30.4611 22.2289 31.1698 22.0292C20.1437 34.1736 19.6408 22.9899 19.6076 19.8951C19.5924 18.4157 19.5294 15.4823 19.4704 12.8835C20.6803 12.8045 21.8817 12.6263 23.0625 12.3508V10.1492C21.8571 9.86699 20.6301 9.68654 19.3944 9.60976L19.3736 8.74913C20.2397 8.42815 20.9652 7.81275 21.4232 7.01068C21.8811 6.2086 22.0423 5.27099 21.8786 4.36202C21.7148 3.45304 21.2365 2.63065 20.5274 2.03884C19.8183 1.44704 18.9236 1.12354 18 1.125C16.9557 1.125 15.9542 1.53985 15.2158 2.27827C14.4773 3.0167 14.0625 4.01822 14.0625 5.06251C14.0625 6.75338 15.1307 8.19169 16.6281 8.74969L16.6072 9.60976C15.3712 9.68648 14.1438 9.86692 12.9381 10.1492V12.3508C14.1216 12.6287 15.3236 12.8036 16.5302 12.8835C16.4711 15.4828 16.4087 18.4157 16.3929 19.8951C16.3597 22.9899 15.8569 34.173 4.8313 22.0298C5.54061 22.2289 6.42148 22.3043 6.69992 21.5803C7.18817 20.3074 4.85155 20.25 2.11104 15.1875C2.11104 15.1875 0.0168546 23.7336 1.93273 25.1848C2.75792 25.8103 3.34123 23.9929 3.63486 22.7391C4.6423 24.8259 6.87205 27.8004 11.8063 31.0832C14.9889 33.2027 18 34.875 18 34.875C18 34.875 21.0116 33.2027 24.1942 31.0838C29.1279 27.801 31.3577 24.8271 32.3651 22.7396C32.6588 23.9934 33.2426 25.8103 34.0678 25.1854C35.9831 23.7336 33.8889 15.1875 33.8889 15.1875ZM18 2.81251C18.5967 2.81251 19.169 3.04956 19.591 3.47151C20.0129 3.89347 20.25 4.46577 20.25 5.06251C20.25 5.65924 20.0129 6.23154 19.591 6.6535C19.169 7.07545 18.5967 7.31251 18 7.31251C17.4033 7.31251 16.831 7.07545 16.409 6.6535C15.987 6.23154 15.75 5.65924 15.75 5.06251C15.75 4.46577 15.987 3.89347 16.409 3.47151C16.831 3.04956 17.4033 2.81251 18 2.81251Z" fill="#9FB6CD"/>
</svg>
