<svg width="35" height="32" viewBox="0 0 35 32" fill="none" xmlns="http://www.w3.org/2000/svg">
<g clip-path="url(#clip0_32_92)">
<path d="M17.4999 9.508C16.5675 9.508 15.6441 9.67592 14.7826 10.0022C13.9211 10.3284 13.1384 10.8066 12.479 11.4095C11.8197 12.0123 11.2966 12.728 10.9398 13.5156C10.583 14.3033 10.3993 15.1475 10.3993 16C10.3993 16.8525 10.583 17.6967 10.9398 18.4844C11.2966 19.272 11.8197 19.9877 12.479 20.5905C13.1384 21.1934 13.9211 21.6716 14.7826 21.9978C15.6441 22.3241 16.5675 22.492 17.4999 22.492C19.3831 22.492 21.1892 21.808 22.5208 20.5905C23.8524 19.373 24.6005 17.7218 24.6005 16C24.6005 14.2782 23.8524 12.6269 22.5208 11.4095C21.1892 10.192 19.3831 9.508 17.4999 9.508ZM12.5868 16C12.5868 14.8086 13.1044 13.6661 14.0258 12.8237C14.9472 11.9813 16.1969 11.508 17.4999 11.508C18.803 11.508 20.0526 11.9813 20.974 12.8237C21.8954 13.6661 22.413 14.8086 22.413 16C22.413 17.1913 21.8954 18.3339 20.974 19.1763C20.0526 20.0187 18.803 20.492 17.4999 20.492C16.1969 20.492 14.9472 20.0187 14.0258 19.1763C13.1044 18.3339 12.5868 17.1913 12.5868 16Z" fill="white"/>
<path d="M21.4286 2.68598C20.2758 -0.894023 14.7239 -0.894023 13.5711 2.68598L13.3655 3.32398C13.285 3.57388 13.1443 3.80415 12.9539 3.99789C12.7634 4.19164 12.5279 4.34396 12.2646 4.44368C12.0014 4.5434 11.7171 4.588 11.4325 4.57421C11.148 4.56042 10.8704 4.48859 10.6202 4.36398L9.98145 4.04398C6.39395 2.25998 2.47176 5.84798 4.4252 9.12598L4.77301 9.70998C4.9093 9.93876 4.98787 10.1925 5.00295 10.4527C5.01804 10.7128 4.96926 10.9728 4.86018 11.2135C4.75111 11.4541 4.58452 11.6694 4.3726 11.8436C4.16069 12.0178 3.90884 12.1464 3.63551 12.22L2.9377 12.408C-0.97793 13.462 -0.97793 18.538 2.9377 19.592L3.63551 19.78C3.90884 19.8536 4.16069 19.9822 4.3726 20.1563C4.58452 20.3305 4.75111 20.5458 4.86018 20.7865C4.96926 21.0272 5.01804 21.2871 5.00295 21.5473C4.98787 21.8074 4.9093 22.0612 4.77301 22.29L4.42301 22.874C2.47176 26.154 6.39395 29.742 9.98145 27.954L10.6202 27.636C10.8704 27.5114 11.148 27.4395 11.4325 27.4257C11.7171 27.4119 12.0014 27.4565 12.2646 27.5563C12.5279 27.656 12.7634 27.8083 12.9539 28.0021C13.1443 28.1958 13.285 28.4261 13.3655 28.676L13.5711 29.314C14.7239 32.894 20.2758 32.894 21.4286 29.314L21.6343 28.676C21.7148 28.4261 21.8554 28.1958 22.0459 28.0021C22.2364 27.8083 22.4719 27.656 22.7351 27.5563C22.9984 27.4565 23.2827 27.4119 23.5672 27.4257C23.8518 27.4395 24.1293 27.5114 24.3796 27.636L25.0183 27.956C28.6058 29.742 32.5302 26.152 30.5746 22.874L30.2268 22.29C30.0905 22.0612 30.0119 21.8074 29.9968 21.5473C29.9817 21.2871 30.0305 21.0272 30.1396 20.7865C30.2487 20.5458 30.4153 20.3305 30.6272 20.1563C30.8391 19.9822 31.0909 19.8536 31.3643 19.78L32.0621 19.592C35.9777 18.538 35.9777 13.462 32.0621 12.408L31.3643 12.22C31.0909 12.1464 30.8391 12.0178 30.6272 11.8436C30.4153 11.6694 30.2487 11.4541 30.1396 11.2135C30.0305 10.9728 29.9817 10.7128 29.9968 10.4527C30.0119 10.1925 30.0905 9.93876 30.2268 9.70998L30.5768 9.12598C32.5302 5.84598 28.6036 2.25998 25.0183 4.04598L24.3796 4.36398C24.1293 4.48859 23.8518 4.56042 23.5672 4.57421C23.2827 4.588 22.9984 4.5434 22.7351 4.44368C22.4719 4.34396 22.2364 4.19164 22.0459 3.99789C21.8554 3.80415 21.7148 3.57388 21.6343 3.32398L21.4286 2.68598ZM15.6689 3.25198C16.2071 1.58198 18.7927 1.58198 19.3308 3.25198L19.5364 3.88998C19.7093 4.42615 20.0112 4.92015 20.42 5.33578C20.8289 5.7514 21.3342 6.0781 21.8991 6.29194C22.464 6.50577 23.074 6.60131 23.6846 6.57156C24.2951 6.5418 24.8906 6.3875 25.4274 6.11998L26.0639 5.79998C27.7352 4.96998 29.5639 6.63998 28.6539 8.16998L28.3061 8.75398C28.014 9.24483 27.8456 9.78923 27.8134 10.3473C27.7812 10.9053 27.886 11.4629 28.1201 11.9791C28.3542 12.4954 28.7116 12.9572 29.1662 13.3307C29.6208 13.7043 30.1611 13.9801 30.7474 14.138L31.443 14.326C33.2696 14.818 33.2696 17.182 31.443 17.674L30.7452 17.862C30.1588 18.02 29.6184 18.296 29.1639 18.6698C28.7093 19.0436 28.3519 19.5057 28.1181 20.0221C27.8842 20.5386 27.7797 21.0964 27.8122 21.6545C27.8448 22.2127 28.0135 22.7572 28.3061 23.248L28.6561 23.83C29.5639 25.358 27.7374 27.03 26.0639 26.198L25.4274 25.88C24.8904 25.6125 24.2948 25.4583 23.6842 25.4286C23.0735 25.399 22.4634 25.4947 21.8985 25.7087C21.3336 25.9228 20.8282 26.2497 20.4195 26.6656C20.0108 27.0814 19.7091 27.5756 19.5364 28.112L19.3308 28.748C18.7927 30.418 16.2071 30.418 15.6689 28.748L15.4633 28.11C15.2904 27.5741 14.9885 27.0804 14.5799 26.6649C14.1712 26.2495 13.666 25.923 13.1015 25.7091C12.5369 25.4953 11.9271 25.3997 11.3168 25.4293C10.7066 25.4588 10.1113 25.6128 9.57457 25.88L8.93582 26.2C7.26457 27.03 5.43582 25.36 6.34582 23.83L6.69363 23.248C6.98665 22.7571 7.15574 22.2125 7.1885 21.654C7.22126 21.0956 7.11686 20.5376 6.88295 20.0209C6.64904 19.5041 6.29156 19.0419 5.83674 18.6679C5.38193 18.294 4.84131 18.0179 4.25457 17.86L3.55676 17.672C1.7302 17.18 1.7302 14.816 3.55676 14.324L4.25457 14.136C4.8404 13.9778 5.38013 13.7019 5.83426 13.3284C6.28839 12.9548 6.64543 12.4932 6.87925 11.9773C7.11307 11.4613 7.21775 10.9041 7.18564 10.3464C7.15352 9.78871 6.98542 9.24462 6.69363 8.75398L6.34363 8.16998C5.43582 6.64198 7.26238 4.96998 8.93582 5.80198L9.57457 6.11998C10.1113 6.38713 10.7066 6.54112 11.3168 6.57068C11.9271 6.60024 12.5369 6.50462 13.1015 6.29081C13.666 6.077 14.1712 5.75043 14.5799 5.33502C14.9885 4.9196 15.2904 4.42587 15.4633 3.88998L15.6689 3.25198Z" fill="white"/>
</g>
<defs>
<clipPath id="clip0_32_92">
<rect width="35" height="32" fill="white"/>
</clipPath>
</defs>
</svg>
