<svg width="38" height="35" viewBox="0 0 38 35" fill="none" xmlns="http://www.w3.org/2000/svg">
<path d="M18.5745 32.0834C14.9886 31.2327 12.028 29.294 9.69281 26.2675C7.35759 23.241 6.1905 19.881 6.19153 16.1875V7.29169L18.5745 2.91669L30.9574 7.29169V16.1875C30.9574 19.882 29.7904 23.2425 27.4562 26.269C25.122 29.2955 22.1614 31.2336 18.5745 32.0834ZM18.5745 29.0209C21.2575 28.2188 23.4761 26.6146 25.2303 24.2084C26.9846 21.8021 27.8617 19.1285 27.8617 16.1875V9.2969L18.5745 6.01565L9.28727 9.2969V16.1875C9.28727 19.1285 10.1644 21.8021 11.9186 24.2084C13.6729 26.6146 15.8915 28.2188 18.5745 29.0209Z" fill="white"/>
</svg>
